<svg width="29" height="33" viewBox="0 0 29 33" fill="none" xmlns="http://www.w3.org/2000/svg">
<path d="M18.2137 27.2734C18.2137 29.4579 16.5532 31.2263 14.5019 31.2263C12.4506 31.2263 10.79 29.4579 10.79 27.2734" stroke="#FF952C" stroke-width="2" stroke-miterlimit="10"/>
<path d="M27.0584 24.72L25.096 21.623V16.4219C25.096 10.7338 21.6328 5.93457 17.0063 4.63429C17.0063 4.57283 17.024 4.51609 17.024 4.45462C17.024 2.97467 15.8963 1.77368 14.5066 1.77368C13.1168 1.77368 11.9846 2.97467 11.9846 4.45462C11.9846 4.51609 11.998 4.57283 12.0024 4.63429C7.37593 5.92984 3.91274 10.7338 3.91274 16.4219V21.6325L1.95026 24.7153C1.31978 25.7035 1.98578 27.0416 3.1091 27.0416H25.8996C27.0229 27.0416 27.6889 25.7083 27.0584 24.7153V24.72Z" stroke="#FF952C" stroke-width="2" stroke-linecap="round" stroke-linejoin="round"/>
</svg>
