<svg width="24" height="24" viewBox="0 0 19 21" fill="none" xmlns="http://www.w3.org/2000/svg">
<path d="M11.77 18.1816C11.77 19.7392 10.586 21.0001 9.12339 21.0001C7.66081 21.0001 6.47681 19.7392 6.47681 18.1816" fill="#8F8F8F"/>
<path d="M18.0762 16.3611L16.6769 14.1528V10.4444C16.6769 6.38867 14.2076 2.96677 10.9089 2.03965C10.9089 1.99583 10.9216 1.95537 10.9216 1.91154C10.9216 0.856317 10.1175 0 9.12658 0C8.13569 0 7.32842 0.856317 7.32842 1.91154C7.32842 1.95537 7.33792 1.99583 7.34108 2.03965C4.04235 2.9634 1.57304 6.38867 1.57304 10.4444V14.1596L0.173772 16.3577C-0.275768 17.0623 0.199098 18.0164 1.00004 18.0164H17.25C18.0509 18.0164 18.5258 17.0657 18.0762 16.3577V16.3611Z" fill="#8F8F8F"/>
</svg>
