<svg width="24" height="24" viewBox="0 0 15 21" fill="none" xmlns="http://www.w3.org/2000/svg">
<path d="M7.35 9.975C6.65381 9.975 5.98613 9.69844 5.49384 9.20615C5.00156 8.71387 4.725 8.04619 4.725 7.35C4.725 6.65381 5.00156 5.98613 5.49384 5.49384C5.98613 5.00156 6.65381 4.725 7.35 4.725C8.04619 4.725 8.71387 5.00156 9.20615 5.49384C9.69844 5.98613 9.975 6.65381 9.975 7.35C9.975 7.69472 9.9071 8.03606 9.77518 8.35454C9.64326 8.67302 9.44991 8.9624 9.20615 9.20615C8.9624 9.44991 8.67302 9.64326 8.35454 9.77518C8.03606 9.9071 7.69472 9.975 7.35 9.975ZM7.35 0C5.40066 0 3.53116 0.774373 2.15277 2.15277C0.774373 3.53116 0 5.40066 0 7.35C0 12.8625 7.35 21 7.35 21C7.35 21 14.7 12.8625 14.7 7.35C14.7 5.40066 13.9256 3.53116 12.5472 2.15277C11.1688 0.774373 9.29934 0 7.35 0Z" fill="#8F8F8F"/>
</svg>
