<?xml version="1.0" encoding="UTF-8"?>
<svg id="Layer_2" data-name="Layer 2" xmlns="http://www.w3.org/2000/svg" viewBox="0 0 68.09 54.72">
  <defs>
    <style>
      .cls-1 {
        fill: #7b7b7b;
      }

      .cls-1, .cls-2, .cls-3 {
        stroke-width: 0px;
      }

      .cls-2 {
        fill: #f79533;
      }

      .cls-3 {
        fill: #010101;
      }
    </style>
  </defs>
  <g id="Layer_1-2" data-name="Layer 1">
    <g>
      <g>
        <path class="cls-2" d="m41.96,40.32H11.29c-2.72,0-5.16-1.73-6.06-4.3L.14,21.5c-.27-.76-.15-1.6.32-2.25s1.22-1.04,2.02-1.04h4.35c1.37,0,2.48,1.11,2.48,2.48s-1.11,2.48-2.48,2.48h-.86l3.93,11.23c.21.59.76.98,1.39.98h30.67c.63,0,1.2-.4,1.41-.99l9.34-27.4c.24-.71.8-1.28,1.51-1.53l10.56-3.78c1.29-.46,2.71.21,3.17,1.5.46,1.29-.21,2.7-1.5,3.17l-9.44,3.38-8.97,26.3c-.92,2.59-3.36,4.32-6.08,4.32Z"/>
        <path class="cls-3" d="m37.13,54.72c-3.54,0-6.42-2.88-6.42-6.42s2.88-6.42,6.42-6.42,6.42,2.88,6.42,6.42-2.88,6.42-6.42,6.42Zm0-7.89c-.81,0-1.47.66-1.47,1.47s.66,1.47,1.47,1.47,1.47-.66,1.47-1.47-.66-1.47-1.47-1.47Z"/>
        <path class="cls-3" d="m15.92,54.72c-3.54,0-6.42-2.88-6.42-6.42s2.88-6.42,6.42-6.42,6.42,2.88,6.42,6.42-2.88,6.42-6.42,6.42Zm0-7.89c-.81,0-1.47.66-1.47,1.47s.66,1.47,1.47,1.47,1.47-.66,1.47-1.47-.66-1.47-1.47-1.47Z"/>
      </g>
      <rect class="cls-1" x="10.66" y="8.12" width="10.96" height="3.39" rx="1.7" ry="1.7" transform="translate(13.18 -8.84) rotate(49.67)"/>
      <rect class="cls-1" x="19.2" y="3.76" width="10.96" height="3.39" rx="1.7" ry="1.7" transform="translate(27.38 -19.67) rotate(83.65)"/>
      <rect class="cls-1" x="28.86" y="5.7" width="10.96" height="3.39" rx="1.7" ry="1.7" transform="translate(56.82 -19.59) rotate(117.63)"/>
    </g>
  </g>
</svg>