<svg width="46.000000" height="46.000000" viewBox="0 0 46 46" fill="none" xmlns="http://www.w3.org/2000/svg" xmlns:xlink="http://www.w3.org/1999/xlink">
	<desc>
			Created with Pixso.
	</desc>
	<g clip-path="url(#clip46_4192)">
		<path id="Vector" d="M40.25 28.3662C40.25 30.5132 40.25 31.5869 39.833 32.4067C39.4648 33.1284 38.8779 33.7144 38.1562 34.082C37.3369 34.5 36.2637 34.5 34.1172 34.5L17.4854 34.5C16.6875 34.5 16.2881 34.5 15.9072 34.5781C15.5684 34.6475 15.2422 34.7622 14.9346 34.9194C14.5879 35.0967 14.2764 35.3457 13.6533 35.8438L10.7324 38.1807C9.1377 39.4565 8.33984 40.0947 7.66895 40.0952C7.08496 40.0962 6.5332 39.8306 6.16895 39.3745C5.75 38.8496 5.75 37.8286 5.75 35.7856L5.75 13.7998C5.75 11.6528 5.75 10.5796 6.16797 9.75977C6.53516 9.03809 7.12109 8.45166 7.84277 8.08447C8.66309 7.6665 9.7373 7.6665 11.8838 7.6665L34.1172 7.6665C36.2637 7.6665 37.3369 7.6665 38.1562 8.08447C38.8779 8.45166 39.4648 9.03809 39.833 9.75977C40.25 10.5796 40.25 11.6528 40.25 13.7998L40.25 28.3662ZM30.6709 21.083L30.6699 21.0869L30.667 21.0869L30.667 21.083L30.6709 21.083ZM23.0039 21.083L23.0039 21.0869L23 21.0869L23 21.083L23.0039 21.083ZM15.3369 21.083L15.3369 21.0869L15.333 21.0869L15.333 21.083L15.3369 21.083Z" stroke="#FFAE00" stroke-width="2.000000" stroke-linejoin="round"/>
	</g>
	<defs>
		<clipPath id="clip46_4192">
			<rect id="Communication / Chat_Dots" width="46.000000" height="46.000000" fill="white"/>
		</clipPath>
	</defs>
</svg>
