<svg width="18" height="18" viewBox="0 0 18 18" fill="none" xmlns="http://www.w3.org/2000/svg">
<path d="M17.175 15.4502C17.4039 15.6792 17.5325 15.9897 17.5325 16.3135C17.5325 16.6373 17.4039 16.9478 17.175 17.1768C16.946 17.4057 16.6355 17.5344 16.3117 17.5344C15.9879 17.5344 15.6774 17.4057 15.4484 17.1768L9.0002 10.7266L2.54997 17.1748C2.32101 17.4037 2.01048 17.5323 1.68668 17.5323C1.36289 17.5323 1.05236 17.4037 0.823403 17.1748C0.594447 16.9458 0.46582 16.6353 0.46582 16.3115C0.46582 15.9877 0.594447 15.6772 0.823403 15.4482L7.27364 8.99999L0.825434 2.54976C0.596478 2.3208 0.467852 2.01027 0.467852 1.68648C0.467852 1.36269 0.596478 1.05215 0.825434 0.823198C1.05439 0.594242 1.36492 0.465615 1.68872 0.465615C2.01251 0.465615 2.32304 0.594242 2.552 0.823198L9.0002 7.27343L15.4504 0.822182C15.6794 0.593226 15.9899 0.4646 16.3137 0.4646C16.6375 0.4646 16.948 0.593226 17.177 0.822182C17.406 1.05114 17.5346 1.36167 17.5346 1.68546C17.5346 2.00926 17.406 2.31979 17.177 2.54874L10.7268 8.99999L17.175 15.4502Z" fill="#5C5C5C"/>
</svg>
