<svg width="19" height="17" viewBox="0 0 19 17" fill="none" xmlns="http://www.w3.org/2000/svg">
<path id="Vector" d="M14.6251 0.612901C13.1943 0.48871 12.0613 1.29553 11.2448 2.22717C10.8402 2.6889 10.531 3.16248 10.3227 3.52215C10.2189 3.70133 10.1412 3.85057 10.09 3.95363C10.0644 4.00512 10.0455 4.04496 10.0333 4.07111L10.0202 4.09976L10.0175 4.10588L10.0173 4.10626C10.0173 4.10635 10.0172 4.10644 10.0172 4.10653M14.6251 0.612901L9.55899 3.90644C10.0173 4.10626 10.0173 4.10641 10.0172 4.10653M14.6251 0.612901C16.1724 0.842831 17.1085 1.67437 17.6379 2.72056C18.1804 3.79243 18.3027 5.11061 18.1425 6.25681L18.1424 6.25679L18.141 6.26823C17.9082 8.26973 16.4905 10.596 14.7008 12.458C13.8135 13.3811 12.8543 14.1692 11.9407 14.7293C11.0247 15.2909 10.199 15.596 9.55899 15.622C8.91889 15.596 8.09296 15.291 7.17679 14.7296C6.263 14.1697 5.30357 13.3819 4.41612 12.4589C2.62613 10.5973 1.20855 8.27118 0.976996 6.26858L0.977136 6.26856L0.975494 6.25681C0.815329 5.11061 0.937621 3.79243 1.48004 2.72056C2.00915 1.67498 2.9445 0.843801 4.49021 0.613304C5.82214 0.51364 6.95662 1.31583 7.80613 2.25261C8.22481 2.7143 8.55299 3.18615 8.77683 3.54393C8.88837 3.72223 8.97306 3.87068 9.02925 3.97333C9.05733 4.02461 9.07823 4.06435 9.09175 4.09052L9.10645 4.11934L9.10958 4.12562L9.10989 4.12623M14.6251 0.612901L9.10989 4.12623M10.0172 4.10653C9.93926 4.28503 9.76474 4.40203 9.56999 4.40632C9.37523 4.4106 9.19572 4.30138 9.11001 4.12647M10.0172 4.10653L9.11001 4.12647M9.11001 4.12647L9.10989 4.12623M9.11001 4.12647L9.10989 4.12623" stroke="#D9D9D9" stroke-linejoin="round"/>
</svg>
