<svg width="17" height="30" viewBox="0 0 17 30" fill="none" xmlns="http://www.w3.org/2000/svg">
<path d="M0.398622 15.9647L13.9889 29.6004C14.1152 29.7271 14.2651 29.8276 14.43 29.8961C14.595 29.9647 14.7718 30 14.9504 30C15.129 30 15.3058 29.9647 15.4708 29.8961C15.6357 29.8276 15.7856 29.7271 15.9119 29.6004C16.0382 29.4737 16.1383 29.3233 16.2067 29.1578C16.275 28.9923 16.3102 28.8148 16.3102 28.6357C16.3102 28.4565 16.275 28.2791 16.2067 28.1136C16.1383 27.948 16.0382 27.7976 15.9119 27.6709L3.28146 15L15.9119 2.32905C16.1669 2.07319 16.3102 1.72617 16.3102 1.36433C16.3102 1.00248 16.1669 0.655462 15.9119 0.399602C15.6569 0.143741 15.311 2.69593e-09 14.9504 0C14.5898 -2.69593e-09 14.2439 0.143741 13.9889 0.399602L0.398622 14.0353C0.272264 14.1619 0.172022 14.3123 0.10363 14.4778C0.0352383 14.6434 3.8147e-05 14.8208 3.8147e-05 15C3.8147e-05 15.1792 0.0352383 15.3566 0.10363 15.5222C0.172022 15.6877 0.272264 15.8381 0.398622 15.9647Z" fill="#8F8F8F"/>
</svg>
