<svg width="15" height="30" viewBox="0 0 15 30" fill="none" xmlns="http://www.w3.org/2000/svg">
<path d="M14.2217 15.9647L2.07476 29.6004C1.9619 29.7271 1.82792 29.8276 1.68047 29.8961C1.53301 29.9647 1.37497 30 1.21537 30C1.05576 30 0.897721 29.9647 0.750266 29.8961C0.602811 29.8276 0.468829 29.7271 0.355972 29.6004C0.243115 29.4737 0.153592 29.3233 0.0925137 29.1578C0.0314358 28.9923 0 28.8148 0 28.6357C0 28.4565 0.0314358 28.2791 0.0925137 28.1136C0.153592 27.948 0.243115 27.7976 0.355972 27.6709L11.645 15L0.355972 2.32905C0.128047 2.07319 -2.40159e-09 1.72617 0 1.36433C2.40159e-09 1.00248 0.128047 0.655462 0.355972 0.399602C0.583898 0.143741 0.893032 2.69593e-09 1.21537 0C1.5377 -2.69593e-09 1.84684 0.143741 2.07476 0.399602L14.2217 14.0353C14.3346 14.1619 14.4242 14.3123 14.4853 14.4778C14.5465 14.6434 14.5779 14.8208 14.5779 15C14.5779 15.1792 14.5465 15.3566 14.4853 15.5222C14.4242 15.6877 14.3346 15.8381 14.2217 15.9647Z" fill="#8F8F8F"/>
</svg>
