<svg width="57" height="57" viewBox="0 0 57 57" fill="none" xmlns="http://www.w3.org/2000/svg">
<circle cx="28.25" cy="28.25" r="28.25" fill="#FFEC3F"/>
<path d="M28 16.75C35.2487 16.75 41.125 21.33 41.125 26.9813C41.125 32.6313 35.2487 37.2113 28 37.2113C27.2782 37.2116 26.5572 37.1657 25.8412 37.0738L20.3312 40.6775C19.705 41.0088 19.4838 40.9725 19.7413 40.1613L20.8562 35.5638C17.2562 33.7388 14.875 30.5763 14.875 26.9813C14.875 21.3313 20.7513 16.75 28 16.75ZM35.3837 26.825L37.2213 25.045C37.3273 24.9349 37.3864 24.7879 37.3862 24.6351C37.3861 24.4822 37.3266 24.3354 37.2203 24.2255C37.114 24.1157 36.9692 24.0513 36.8164 24.0461C36.6636 24.0409 36.5148 24.0952 36.4013 24.1975L33.9912 26.53V24.6025C33.9912 24.446 33.9291 24.296 33.8184 24.1853C33.7078 24.0747 33.5577 24.0125 33.4012 24.0125C33.2448 24.0125 33.0947 24.0747 32.9841 24.1853C32.8734 24.296 32.8113 24.446 32.8113 24.6025V27.7988C32.7891 27.8899 32.7891 27.9851 32.8113 28.0763V29.875C32.8113 30.0315 32.8734 30.1815 32.9841 30.2922C33.0947 30.4028 33.2448 30.465 33.4012 30.465C33.5577 30.465 33.7078 30.4028 33.8184 30.2922C33.9291 30.1815 33.9912 30.0315 33.9912 29.875V28.1713L34.525 27.655L36.31 30.1963C36.3546 30.2597 36.4112 30.3137 36.4766 30.3553C36.5421 30.3969 36.6151 30.4251 36.6915 30.4385C36.7679 30.4518 36.8461 30.45 36.9218 30.4331C36.9975 30.4162 37.0691 30.3846 37.1325 30.34C37.1959 30.2954 37.25 30.2388 37.2916 30.1734C37.3331 30.1079 37.3614 30.0349 37.3747 29.9585C37.3881 29.8821 37.3862 29.8039 37.3693 29.7282C37.3525 29.6525 37.3208 29.5809 37.2762 29.5175L35.3837 26.8238V26.825ZM31.6863 29.23H29.8612V24.6213C29.8543 24.4696 29.7891 24.3265 29.6794 24.2217C29.5696 24.1169 29.4237 24.0584 29.2719 24.0584C29.1201 24.0584 28.9742 24.1169 28.8644 24.2217C28.7546 24.3265 28.6895 24.4696 28.6825 24.6213V29.82C28.6825 30.145 28.945 30.41 29.2712 30.41H31.6863C31.8427 30.41 31.9928 30.3478 32.1034 30.2372C32.2141 30.1265 32.2762 29.9765 32.2762 29.82C32.2762 29.6635 32.2141 29.5135 32.1034 29.4028C31.9928 29.2922 31.8427 29.23 31.6863 29.23ZM24.365 27.865L25.235 25.7313L26.0325 27.865H24.365ZM27.5187 28.475L27.5212 28.455C27.521 28.3064 27.4642 28.1634 27.3625 28.055L26.055 24.555C26.0002 24.3882 25.8958 24.2421 25.7557 24.1362C25.6157 24.0304 25.4467 23.9698 25.2713 23.9625C25.0946 23.9617 24.9218 24.0148 24.776 24.1146C24.6302 24.2144 24.5182 24.3562 24.455 24.5213L22.3787 29.615C22.3494 29.6867 22.3346 29.7635 22.3349 29.841C22.3353 29.9185 22.351 29.9952 22.381 30.0666C22.411 30.1381 22.4548 30.2029 22.5098 30.2574C22.5649 30.3119 22.6301 30.3551 22.7019 30.3844C22.7736 30.4137 22.8504 30.4286 22.9279 30.4282C23.0054 30.4278 23.082 30.4122 23.1535 30.3822C23.2249 30.3522 23.2898 30.3084 23.3443 30.2533C23.3988 30.1982 23.4419 30.133 23.4712 30.0613L23.8837 29.045H26.4713L26.845 30.045C26.8704 30.1197 26.9106 30.1886 26.9631 30.2476C27.0156 30.3065 27.0794 30.3543 27.1507 30.3882C27.2221 30.422 27.2995 30.4412 27.3784 30.4446C27.4572 30.4479 27.536 30.4355 27.6099 30.4078C27.6839 30.3802 27.7516 30.3381 27.8089 30.2838C27.8663 30.2296 27.9122 30.1644 27.9439 30.0921C27.9756 30.0198 27.9925 29.9418 27.9936 29.8629C27.9946 29.784 27.9798 29.7056 27.95 29.6325L27.5187 28.475ZM23.3663 24.6275C23.3663 24.4712 23.3043 24.3214 23.1939 24.2107C23.0835 24.1001 22.9338 24.0378 22.7775 24.0375H18.7213C18.5648 24.0375 18.4147 24.0997 18.3041 24.2103C18.1934 24.321 18.1312 24.471 18.1312 24.6275C18.1312 24.784 18.1934 24.934 18.3041 25.0447C18.4147 25.1553 18.5648 25.2175 18.7213 25.2175H20.1712V29.8875C20.1712 30.044 20.2334 30.194 20.3441 30.3047C20.4547 30.4153 20.6048 30.4775 20.7613 30.4775C20.9177 30.4775 21.0678 30.4153 21.1784 30.3047C21.2891 30.194 21.3513 30.044 21.3513 29.8875V25.2175H22.7762C22.9327 25.2175 23.0828 25.1553 23.1934 25.0447C23.3041 24.934 23.3663 24.784 23.3663 24.6275Z" fill="black"/>
</svg>
