<svg width="16" height="16" viewBox="0 0 16 16" fill="none" xmlns="http://www.w3.org/2000/svg">
<g id="ri:search-line">
<path id="Vector" d="M12.0207 11.0782L14.876 13.9328L13.9327 14.8762L11.078 12.0208C10.0159 12.8723 8.69471 13.3354 7.33337 13.3335C4.02137 13.3335 1.33337 10.6455 1.33337 7.3335C1.33337 4.0215 4.02137 1.3335 7.33337 1.3335C10.6454 1.3335 13.3334 4.0215 13.3334 7.3335C13.3353 8.69483 12.8722 10.016 12.0207 11.0782ZM10.6834 10.5835C11.5294 9.71342 12.002 8.54712 12 7.3335C12 4.7555 9.91137 2.66683 7.33337 2.66683C4.75537 2.66683 2.66671 4.7555 2.66671 7.3335C2.66671 9.9115 4.75537 12.0002 7.33337 12.0002C8.54699 12.0021 9.7133 11.5296 10.5834 10.6835L10.6834 10.5835Z" fill="#2C9B36"/>
</g>
</svg>
