<svg width="14" height="24" viewBox="0 0 19 19" fill="none" xmlns="http://www.w3.org/2000/svg">
<g clip-path="url(#clip0_745_1786)">
<path d="M10.524 1.73389e-06C10.8033 1.73389e-06 11.0531 0.173852 11.1472 0.434152L11.8179 2.2933C12.0582 2.35315 12.2644 2.413 12.4392 2.4757C12.6301 2.5441 12.8762 2.64765 13.1802 2.7892L14.742 1.9627C14.8694 1.89516 15.0154 1.87078 15.1579 1.89322C15.3004 1.91566 15.4318 1.98371 15.5324 2.08715L16.9061 3.5074C17.0885 3.69645 17.1398 3.9729 17.0372 4.2142L16.3047 5.93085C16.4263 6.1541 16.5232 6.34505 16.5973 6.50465C16.6771 6.6785 16.7759 6.9179 16.8937 7.22665L18.6009 7.95815C18.8574 8.0674 19.016 8.3239 18.9989 8.59845L18.8735 10.5697C18.8649 10.6978 18.819 10.8205 18.7413 10.9227C18.6636 11.0248 18.5576 11.102 18.4365 11.1445L16.8196 11.7192C16.7731 11.9425 16.7246 12.1334 16.6733 12.2949C16.5906 12.5443 16.4961 12.7897 16.3902 13.0302L17.2025 14.8257C17.2598 14.9519 17.2752 15.0931 17.2465 15.2286C17.2178 15.3642 17.1464 15.487 17.0429 15.5791L15.4982 16.9585C15.3964 17.0489 15.2695 17.1061 15.1343 17.1224C14.9992 17.1387 14.8623 17.1133 14.742 17.0497L13.1498 16.2061C12.9007 16.3379 12.6437 16.4544 12.3803 16.5547L11.6849 16.815L11.0674 18.525C11.0216 18.6502 10.9391 18.7587 10.8306 18.8362C10.7221 18.9137 10.5927 18.9565 10.4594 18.9592L8.65436 19C8.51752 19.0036 8.38294 18.9647 8.26912 18.8886C8.15531 18.8126 8.06786 18.7031 8.01881 18.5754L7.29111 16.6497C7.04283 16.5648 6.79699 16.473 6.55391 16.3742C6.35509 16.2881 6.15928 16.1953 5.96681 16.0959L4.16181 16.8673C4.04288 16.918 3.91176 16.9331 3.78442 16.9106C3.65707 16.8882 3.539 16.8292 3.44456 16.7409L2.10886 15.4879C2.00942 15.395 1.94169 15.2732 1.91527 15.1397C1.88884 15.0062 1.90505 14.8678 1.96161 14.744L2.73776 13.053C2.63454 12.8527 2.53884 12.6486 2.45086 12.4412C2.34817 12.1873 2.25312 11.9304 2.16586 11.6708L0.465361 11.153C0.327137 11.1112 0.206575 11.025 0.122401 10.9076C0.0382267 10.7903 -0.00485002 10.6485 -0.000139186 10.5042L0.0663608 8.6792C0.0710943 8.56013 0.108291 8.44462 0.173927 8.34516C0.239564 8.2457 0.331143 8.16608 0.438761 8.1149L2.22286 7.258C2.30551 6.95495 2.37771 6.71935 2.44136 6.5474C2.53098 6.31774 2.63051 6.09206 2.73966 5.871L1.96636 4.237C1.90768 4.11292 1.88985 3.97341 1.91546 3.83856C1.94106 3.7037 2.00878 3.58044 2.10886 3.4865L3.44266 2.2268C3.53616 2.13862 3.65315 2.07933 3.77956 2.05607C3.90596 2.03281 4.03639 2.04657 4.15516 2.0957L5.95826 2.8405C6.15776 2.7075 6.33826 2.60015 6.50166 2.5137C6.69641 2.41015 6.95671 2.30185 7.28446 2.185L7.91146 0.436052C7.95781 0.308057 8.04255 0.197489 8.15408 0.119446C8.26562 0.0414035 8.39853 -0.000309938 8.53466 1.73389e-06H10.524ZM9.52266 6.66805C7.93901 6.66805 6.65556 7.9363 6.65556 9.5019C6.65556 11.0675 7.93901 12.3367 9.52266 12.3367C11.1054 12.3367 12.3888 11.0675 12.3888 9.5019C12.3888 7.9363 11.1063 6.66805 9.52266 6.66805Z" fill="#8F8F8F"/>
</g>
<defs>
<clipPath id="clip0_745_1786">
<rect width="19" height="19" fill="white"/>
</clipPath>
</defs>
</svg>
