<svg width="34" height="34" viewBox="0 0 34 34" fill="none" xmlns="http://www.w3.org/2000/svg">
<path d="M17 9.34995C17 11.3789 16.194 13.3247 14.7594 14.7593C13.3247 16.194 11.3789 17 9.35 17C7.32109 17 5.37528 16.194 3.94063 14.7593C2.50598 13.3247 1.7 11.3789 1.7 9.34995C1.7 7.32105 2.50598 5.37524 3.94063 3.94058C5.37528 2.50593 7.32109 1.69995 9.35 1.69995C11.3789 1.69995 13.3247 2.50593 14.7594 3.94058C16.194 5.37524 17 7.32105 17 9.34995ZM10.2 5.94995C10.2 5.72452 10.1104 5.50832 9.95104 5.34891C9.79163 5.1895 9.57543 5.09995 9.35 5.09995C9.12456 5.09995 8.90836 5.1895 8.74896 5.34891C8.58955 5.50832 8.5 5.72452 8.5 5.94995V8.49995H5.95C5.72456 8.49995 5.50836 8.5895 5.34896 8.74891C5.18955 8.90832 5.1 9.12452 5.1 9.34995C5.1 9.57539 5.18955 9.79159 5.34896 9.95099C5.50836 10.1104 5.72456 10.2 5.95 10.2H8.5V12.75C8.5 12.9754 8.58955 13.1916 8.74896 13.351C8.90836 13.5104 9.12456 13.6 9.35 13.6C9.57543 13.6 9.79163 13.5104 9.95104 13.351C10.1104 13.1916 10.2 12.9754 10.2 12.75V10.2H12.75C12.9754 10.2 13.1916 10.1104 13.351 9.95099C13.5104 9.79159 13.6 9.57539 13.6 9.34995C13.6 9.12452 13.5104 8.90832 13.351 8.74891C13.1916 8.5895 12.9754 8.49995 12.75 8.49995H10.2V5.94995ZM23.8 6.79995H18.3481C18.1818 6.21272 17.958 5.6433 17.68 5.09995H23.8C25.1526 5.09995 26.4498 5.63727 27.4062 6.59371C28.3627 7.55014 28.9 8.84735 28.9 10.2V23.8C28.9 25.1526 28.3627 26.4498 27.4062 27.4062C26.4498 28.3626 25.1526 28.9 23.8 28.9H10.2C8.84739 28.9 7.55019 28.3626 6.59375 27.4062C5.63732 26.4498 5.1 25.1526 5.1 23.8V17.68C5.6389 17.9554 6.2067 18.1798 6.8 18.3481V23.8C6.8 24.4341 6.9734 25.0274 7.276 25.534L15.2133 17.7344C15.6901 17.2661 16.3317 17.0037 17 17.0037C17.6683 17.0037 18.3099 17.2661 18.7867 17.7344L26.7257 25.534C27.0373 25.0093 27.2012 24.4101 27.2 23.8V10.2C27.2 9.29822 26.8418 8.43341 26.2042 7.79579C25.5665 7.15816 24.7017 6.79995 23.8 6.79995ZM23.8 12.75C23.8 13.0848 23.734 13.4164 23.6059 13.7258C23.4777 14.0352 23.2899 14.3163 23.0531 14.5531C22.8163 14.7899 22.5352 14.9777 22.2258 15.1058C21.9165 15.234 21.5849 15.3 21.25 15.3C20.9151 15.3 20.5835 15.234 20.2742 15.1058C19.9648 14.9777 19.6837 14.7899 19.4469 14.5531C19.2101 14.3163 19.0223 14.0352 18.8941 13.7258C18.766 13.4164 18.7 13.0848 18.7 12.75C18.7 12.0736 18.9687 11.425 19.4469 10.9468C19.9251 10.4686 20.5737 10.2 21.25 10.2C21.9263 10.2 22.5749 10.4686 23.0531 10.9468C23.5313 11.425 23.8 12.0736 23.8 12.75ZM22.1 12.75C22.1 12.5245 22.0104 12.3083 21.851 12.1489C21.6916 11.9895 21.4754 11.9 21.25 11.9C21.0246 11.9 20.8084 11.9895 20.649 12.1489C20.4896 12.3083 20.4 12.5245 20.4 12.75C20.4 12.9754 20.4896 13.1916 20.649 13.351C20.8084 13.5104 21.0246 13.6 21.25 13.6C21.4754 13.6 21.6916 13.5104 21.851 13.351C22.0104 13.1916 22.1 12.9754 22.1 12.75ZM8.4796 26.7342C9.00112 27.0404 9.5952 27.2013 10.2 27.2H23.8C24.429 27.2 25.0155 27.03 25.5204 26.7342L17.595 18.9482C17.4361 18.7924 17.2225 18.7052 17 18.7052C16.7775 18.7052 16.5639 18.7924 16.405 18.9482L8.4796 26.7342Z" fill="#8F8F8F"/>
</svg>
