<svg width="29" height="33" viewBox="0 0 29 33" fill="none" xmlns="http://www.w3.org/2000/svg">
<path d="M18.214 27.2733C18.214 29.4578 16.5534 31.2262 14.5021 31.2262C12.4508 31.2262 10.7903 29.4578 10.7903 27.2733" stroke="#FF952C" stroke-width="2" stroke-miterlimit="10"/>
<path d="M27.0584 24.72L25.096 21.623V16.4219C25.096 10.7338 21.6328 5.93457 17.0063 4.63429C17.0063 4.57283 17.024 4.51609 17.024 4.45462C17.024 2.97467 15.8963 1.77368 14.5066 1.77368C13.1168 1.77368 11.9846 2.97467 11.9846 4.45462C11.9846 4.51609 11.998 4.57283 12.0024 4.63429C7.37593 5.92984 3.91274 10.7338 3.91274 16.4219V21.6325L1.95026 24.7153C1.31978 25.7035 1.98578 27.0416 3.1091 27.0416H25.8996C27.0229 27.0416 27.6889 25.7083 27.0584 24.7153V24.72Z" stroke="#FF952C" stroke-width="2" stroke-linecap="round" stroke-linejoin="round"/>
</svg>
